<?xml version="1.0" standalone="no"?>
<!DOCTYPE svg PUBLIC "-//W3C//DTD SVG 20010904//EN"
 "http://www.w3.org/TR/2001/REC-SVG-20010904/DTD/svg10.dtd">
<svg version="1.0" xmlns="http://www.w3.org/2000/svg"
 width="512.000000pt" height="512.000000pt" viewBox="0 0 512.000000 512.000000"
 preserveAspectRatio="xMidYMid meet">

<g transform="translate(0.000000,512.000000) scale(0.100000,-0.100000)"
fill="#000000" stroke="none">
<path d="M2475 4539 c-38 -34 -153 -130 -255 -214 -102 -84 -259 -216 -350
-292 -91 -76 -179 -149 -196 -163 -18 -14 -125 -104 -240 -200 -114 -96 -222
-186 -240 -200 -113 -89 -674 -564 -674 -570 0 -5 38 -54 85 -110 47 -56 94
-113 104 -127 l20 -25 146 121 145 121 2 -1182 3 -1183 938 -3 937 -2 0 170 0
170 -340 0 -340 0 -2 428 -3 427 -252 3 -253 2 -2 -427 -3 -428 -167 -3 -168
-2 -1 1137 c0 626 -2 1146 -4 1156 -2 11 10 30 28 47 60 53 1162 970 1167 970
4 0 917 -759 1159 -962 l32 -28 2 -472 2 -473 173 -3 172 -2 0 331 0 331 58
-49 c31 -27 96 -82 144 -121 l87 -72 106 126 c58 69 105 129 105 134 0 5 -82
77 -182 160 -101 84 -255 212 -343 286 -194 162 -996 830 -1120 933 -50 41
-156 130 -237 198 -81 68 -153 123 -160 122 -7 0 -44 -27 -83 -60z"/>
<path d="M2390 3410 l0 -170 170 0 170 0 0 170 0 170 -170 0 -170 0 0 -170z"/>
<path d="M1710 2475 l0 -255 255 0 255 0 0 255 0 255 -255 0 -255 0 0 -255z"/>
<path d="M2560 2475 l0 -255 425 0 425 0 0 255 0 255 -425 0 -425 0 0 -255z"/>
<path d="M3680 1864 c-185 -40 -346 -186 -411 -374 -33 -96 -32 -249 3 -342
37 -100 85 -173 153 -235 147 -134 362 -177 551 -111 l72 25 158 -158 159
-159 117 117 c65 65 118 122 118 128 0 5 -71 80 -157 167 -128 128 -154 159
-145 171 20 24 52 167 52 231 -1 262 -186 486 -445 541 -85 18 -140 18 -225
-1z m177 -339 c161 -48 205 -258 75 -365 -68 -56 -149 -64 -229 -25 -179 90
-146 348 52 396 44 10 47 10 102 -6z"/>
</g>
</svg>
